# xmcd
#
# Track frame offsets:
# 150
# 15795
# 38962
# 49915
# 65767
# 84030
# 107140
# 118887
# 131860
# 150977
# 170362
# 192442
# 212342
# 223477
# 240417
# 259622
# 273345
# 288660
# 311075
# 328815
#
# Disc length: 4584 seconds
#
#
# Revision: 2
# Processed by: cddbd v1.5.2PL0 Copyright (c) Steve Scherf et al.
# Submitted via: FreeRIP 2.951 
#
DISCID=2611e614
DTITLE=CELSO BLUES BOY - Novo Millennium
DYEAR=2000
DGENRE=Blues
TTITLE0=CELSO BLUES BOY - Aumenta que Isso Ai é Rock and Roll (Ao Vivo)
TTITLE1=CELSO BLUES BOY - Sempre Brilhará
TTITLE2=CELSO BLUES BOY - Tempos Difíceis (Ao Vivo)
TTITLE3=CELSO BLUES BOY - Marginal
TTITLE4=CELSO BLUES BOY - Quem Entende
TTITLE5=CELSO BLUES BOY - Vem Buscar o que Sobrou
TTITLE6=CELSO BLUES BOY - Fumando na Escuridão (Ao Vivo)
TTITLE7=CELSO BLUES BOY - Só Resta um Blues
TTITLE8=CELSO BLUES BOY - Rock Fora da Lei
TTITLE9=CELSO BLUES BOY - Amor Vazio
TTITLE10=CELSO BLUES BOY - Não me Espere
TTITLE11=CELSO BLUES BOY - Atrás do Tempo Perdido
TTITLE12=CELSO BLUES BOY - Me Diga o que É o Amor (Ao Vivo)
TTITLE13=CELSO BLUES BOY - Damas da Noite
TTITLE14=CELSO BLUES BOY - Brilho da Noite
TTITLE15=CELSO BLUES BOY - A Isso Chamam Blues (Ao Vivo)
TTITLE16=Deixe Tudo Acontecer
TTITLE17=CELSO BLUES BOY - Blues Motel
TTITLE18=CELSO BLUES BOY - Sem Ninguém (Ao Vivo)
TTITLE19=CELSO BLUES BOY - D-Natural Blues
EXTD=
EXTT0=
EXTT1=
EXTT2=
EXTT3=
EXTT4=
EXTT5=
EXTT6=
EXTT7=
EXTT8=
EXTT9=
EXTT10=
EXTT11=
EXTT12=
EXTT13=
EXTT14=
EXTT15=
EXTT16=
EXTT17=
EXTT18=
EXTT19=
PLAYORDER=
